<?xml version="1.0" standalone="no"?><!DOCTYPE svg PUBLIC "-//W3C//DTD SVG 1.1//EN" "http://www.w3.org/Graphics/SVG/1.1/DTD/svg11.dtd"><svg t="1718526859514" class="icon" viewBox="0 0 1756 1024" version="1.1" xmlns="http://www.w3.org/2000/svg" p-id="6870" xmlns:xlink="http://www.w3.org/1999/xlink" width="439" height="256"><path d="M413.99056641 778.79617899c18.22709886-20.12082324 37.16434387-39.53150032 54.91801194-60.36246972 33.37689514-39.29478493 66.51707489-79.06300064 99.1838239-119.06793172 6.62803595-8.04832956 11.83577829-17.7536681 16.80680526-26.98557457 12.78264113-23.6715566 10.41548469-44.73924267-11.36234753-61.07261716-20.35753862-15.38651166-43.31894906-26.98557457-65.80692874-39.05806955-24.85513482-13.49278727-50.42041579-25.80199764-75.74898266-38.58463749 0.23671538-0.71014615 0.23671538-1.65700898 0.47343076-2.36715514 6.86475133 1.42029361 13.72950268 2.84058721 20.35753863 4.49759618 49.00012347 12.54592575 98.23696105 23.90827198 148.65737812 28.64258357 40.95179393 3.78744874 81.19344039 1.42029361 120.48822533-10.88891675 34.79718875-10.88891676 62.49291076-32.66674898 88.5316225-57.28516843 4.2608808-4.02416414 7.57489879-9.23190778 10.17876931-14.4396501 14.91308089-29.58944639 4.2608808-57.04845173-26.7488592-68.88423133-11.12563215-4.2608808-22.96141044-6.62803595-33.37689514-12.07249371-8.75847571-4.4975962-18.46381425-10.65220009-23.1981258-18.70052962-8.75847571-14.91308089-21.30440145-21.77783222-36.92762852-24.14498866-13.2560719-2.13043975-26.51214381-3.31401797-40.00493109-4.49759619-20.83097069-1.89372437-40.47836187-7.10146673-56.10159018-22.0145476-17.51695271-16.57008987-40.00493109-17.28023603-61.78276331-20.35753864-50.42041579-7.3381821-100.13068542-17.51695271-148.42066274-34.32375795-4.73431157-1.65700898-9.46862316-3.78744874-13.96621806-5.44445775 0-0.94686283 0.23671538-1.89372437 0.23671538-2.84058719 4.02416414 0 8.04832956-0.23671538 11.8357783 0 105.10171237 8.04832956 209.96671066 16.0966591 315.06842304 24.38170404 54.20786582 4.2608808 108.41573036 9.46862316 162.62359617 14.91308089 16.0966591 1.65700898 31.95660154 5.44445774 47.57982988 8.75847571 39.05806955 8.52176032 70.06780825 29.11601563 94.21279692 61.07261714 13.49278727 17.99038348 14.43965012 17.04352065 33.85032591 5.68117312 18.93724502-11.36234753 37.63777594-23.43484122 60.3624697-26.27542842 6.15460518-0.71014615 12.78264113-1.65700898 18.70052962-0.23671538 17.99038348 4.2608808 35.74405157 9.94205392 54.44458121 1.18357822 0.23671538 0.94686283 0.47343076 1.65700898 0.71014616 2.60387183-0.94686283 2.36715515-1.65700898 4.73431157-2.84058721 6.86475134-7.10146673 10.88891676-10.88891676 22.72469505-10.17876931 35.74405156 0.94686283 16.3333745-4.97102697 31.24645539-15.85994372 42.13537084-29.82616178 29.82616178-40.71507853 66.51707489-46.63296703 106.99543806-5.9178898 40.95179393-18.46381425 80.24657756-49.00012347 110.78288678-14.20293474 14.20293474-29.11601563 27.9324374-44.50252729 40.71507854-97.52681489 81.66687117-187.95216176 170.90864111-277.4306471 260.86055721-10.65220009 10.65220009-21.06768607 21.30440145-31.71988614 31.71988615-2.84058721 2.84058721-6.39132057 5.20774235-9.70533855 7.57489879-1.18357822-0.71014615-2.60387182-1.18357822-3.78744876-1.89372438 1.18357822-5.44445774 1.18357822-12.07249369 4.02416414-16.57008986 8.99519109-13.96621806 18.22709886-27.69572202 28.64258358-40.24164649 14.6763655-17.51695271 30.29959254-34.32375797 46.39625164-50.65713245 17.04352065-17.51695271 26.27542842-36.69091311 21.77783223-61.78276332-2.84058721-15.14979628 4.97102697-26.51214381 15.62322704-36.45419772 9.23190778-8.75847571 17.99038348-17.51695271 26.51214382-26.74885919 7.57489879-8.04832956 9.94205392-18.22709886 7.33818208-28.64258357-3.55073335-13.96621806 1.18357822-25.56528097 8.9951911-36.45419771 9.46862316-13.01935651 19.64739246-25.56528097 28.64258356-39.05806956 13.49278727-20.59425401 4.97102697-35.98076695-19.88410784-36.6909131-30.29959254-0.94686283-59.41560817 5.9178898-87.82147635 16.33337448-46.39625165 17.04352065-87.58476096 43.55566445-127.11626129 72.1982493-72.1982493 52.07742477-143.92306654 105.10171237-215.88459915 157.6525692-3.07730259 2.36715515-6.39132057 4.2608808-9.70533856 6.39132057C414.93742922 780.21647259 414.46399846 779.50632642 413.99056641 778.79617899z" fill="#d81e06" p-id="6871"></path><path d="M625.64198441 81.93402291c14.20293401-7.10146762 26.63050141-13.98101333 39.72383205-19.7509557 81.66687205-35.7292563 166.44063474-54.37060741 255.87473643-45.93761574 194.40266141 18.41943043 332.88126949 160.22685104 350.85685858 341.98002436 9.32067555 93.42867623-10.87412148 181.53125266-50.59795351 265.86117403-61.47207502 131.1552198-160.89261428 223.91813401-291.60399273 284.05868375-69.90506667 32.1785231-143.58278721 50.37603165-219.92355948 58.14326128-41.49919866 4.21649644-81.00110882-3.55073319-119.83725696-17.08790518-89.65602236-31.06891852-162.22413831-85.21760526-214.81937912-163.99950612-47.2691398-70.57082868-66.13241279-149.35272957-61.91591639-234.12649347 2.44112983-49.04450762 13.75909266-96.53556807 28.84971059-143.13894587 1.33152526-4.21649644 3.10689185-8.21107098 6.65762505-11.98372606-1.10960458 4.21649644-1.99728727 8.21107098-3.32881252 12.42756742-16.64406384 57.47749925-27.51818532 115.84268242-24.18937281 175.98323097 3.55073319 61.69399569 20.19479703 119.39341563 54.59252809 171.3228932 56.58981535 84.99568458 137.3690035 135.37171623 234.7922555 159.11724647 66.35433347 16.20022128 132.93058762 10.87412148 198.84107851-6.21378373 92.76291421-23.96745091 173.32018169-70.34890801 244.3348517-134.48403352 60.36247043-54.59252807 108.29737347-118.50573172 140.03205403-193.51497872 38.83614815-91.65330963 50.37603165-186.19159043 22.1920843-282.9490792-31.29083919-107.40968957-101.86166909-180.86548943-203.27949561-225.02773858C952.3094702 46.4266885 888.61818725 32.44567517 822.0419331 34.66488312c-63.69128297 2.21920795-124.0537534 18.64135111-182.19701467 43.94032727-3.32881252 1.55344592-6.87954572 2.88497118-10.20835948 4.21649644C629.19271761 83.26554817 628.30503491 82.59978615 625.64198441 81.93402291z" fill="#d81e06" p-id="6872"></path></svg>