<svg width="92" height="44" viewBox="0 0 92 44" fill="none" xmlns="http://www.w3.org/2000/svg">
<rect x="10" y="10.5" width="38" height="5" fill="#D9D9D9"/>
<rect x="10" y="19.5" width="38" height="2" fill="#D9D9D9"/>
<rect x="10" y="23.5" width="38" height="2" fill="#D9D9D9"/>
<rect x="10" y="27.5" width="38" height="2" fill="#D9D9D9"/>
<rect x="10" y="31.5" width="12.6667" height="2" fill="#D9D9D9"/>
<rect x="22.6667" y="31.5" width="12.6667" height="2" fill="#D9D9D9"/>
<g style="mix-blend-mode:darken">
<rect width="34" height="40" transform="translate(56 2)" fill="#ECECEC"/>
<path d="M70.7716 18.9643C70.201 18.9643 69.7385 19.444 69.7385 20.0357C69.7385 20.6275 70.201 21.1071 70.7716 21.1071C71.3421 21.1071 71.8046 20.6275 71.8046 20.0357C71.8046 19.444 71.3419 18.9643 70.7716 18.9643ZM77.1228 17H68.8582C68.1168 17 67.5 17.6395 67.5 18.4286V25.5714C67.5 26.3605 68.1166 27 68.8581 27H77.1226C77.8834 27 78.5 26.3605 78.5 25.5714V18.4286C78.5002 17.6395 77.9019 17 77.1228 17ZM77.4671 25.4219L74.5229 21.2723C74.4691 21.1696 74.3464 21.1071 74.2151 21.1071C74.0836 21.1071 73.9607 21.1689 73.8878 21.2719L71.5935 24.4884L70.7952 23.4594C70.7212 23.3638 70.603 23.3074 70.4774 23.3074C70.3516 23.3074 70.2335 23.3638 70.1593 23.4594L68.5339 25.5533C68.5339 25.5527 68.5339 25.554 68.5339 25.5533L68.533 18.4286C68.533 18.2317 68.6875 18.0714 68.8774 18.0714H77.1419C77.3318 18.0714 77.4863 18.2317 77.4863 18.4286V25.4219H77.4671Z" fill="#A0A0A0"/>
</g>
<rect x="1" y="1" width="90" height="42" rx="3" stroke="#D9D9D9" stroke-width="2"/>
</svg>
