<svg width="92" height="44" viewBox="0 0 92 44" fill="none" xmlns="http://www.w3.org/2000/svg">
<g style="mix-blend-mode:darken">
<rect width="34" height="40" transform="translate(2 2)" fill="#ECECEC"/>
<path d="M16.7716 18.9643C16.201 18.9643 15.7385 19.444 15.7385 20.0357C15.7385 20.6275 16.201 21.1071 16.7716 21.1071C17.3421 21.1071 17.8046 20.6275 17.8046 20.0357C17.8046 19.444 17.3419 18.9643 16.7716 18.9643ZM23.1228 17H14.8582C14.1168 17 13.5 17.6395 13.5 18.4286V25.5714C13.5 26.3605 14.1166 27 14.8581 27H23.1226C23.8834 27 24.5 26.3605 24.5 25.5714V18.4286C24.5002 17.6395 23.9019 17 23.1228 17ZM23.4671 25.4219L20.5229 21.2723C20.4691 21.1696 20.3464 21.1071 20.2151 21.1071C20.0836 21.1071 19.9607 21.1689 19.8878 21.2719L17.5935 24.4884L16.7952 23.4594C16.7212 23.3638 16.603 23.3074 16.4774 23.3074C16.3516 23.3074 16.2335 23.3638 16.1593 23.4594L14.5339 25.5533C14.5339 25.5527 14.5339 25.554 14.5339 25.5533L14.533 18.4286C14.533 18.2317 14.6875 18.0714 14.8774 18.0714H23.1419C23.3318 18.0714 23.4863 18.2317 23.4863 18.4286V25.4219H23.4671Z" fill="#A0A0A0"/>
</g>
<rect x="44" y="10.5" width="38" height="5" fill="#D9D9D9"/>
<rect x="44" y="19.5" width="38" height="2" fill="#D9D9D9"/>
<rect x="44" y="23.5" width="38" height="2" fill="#D9D9D9"/>
<rect x="44" y="27.5" width="38" height="2" fill="#D9D9D9"/>
<rect x="44" y="31.5" width="12.6667" height="2" fill="#D9D9D9"/>
<rect x="56.6667" y="31.5" width="12.6667" height="2" fill="#D9D9D9"/>
<rect x="1" y="1" width="90" height="42" rx="3" stroke="#D9D9D9" stroke-width="2"/>
</svg>
