<svg width="92" height="69" viewBox="0 0 92 69" fill="none" xmlns="http://www.w3.org/2000/svg">
<rect x="10" y="8" width="26" height="5" fill="#D9D9D9"/>
<rect x="10" y="19" width="21.3333" height="20" rx="3" fill="#ECECEC"/>
<path d="M18.4382 25.9643C17.8677 25.9643 17.4052 26.444 17.4052 27.0357C17.4052 27.6275 17.8677 28.1071 18.4382 28.1071C19.0088 28.1071 19.4713 27.6275 19.4713 27.0357C19.4713 26.444 19.0086 25.9643 18.4382 25.9643ZM24.7894 24H16.5249C15.7835 24 15.1667 24.6395 15.1667 25.4286V32.5714C15.1667 33.3605 15.7833 34 16.5247 34H24.7892C25.55 34 26.1667 33.3605 26.1667 32.5714V25.4286C26.1669 24.6395 25.5685 24 24.7894 24ZM25.1338 32.4219L22.1895 28.2723C22.1357 28.1696 22.0131 28.1071 21.8818 28.1071C21.7502 28.1071 21.6274 28.1689 21.5544 28.2719L19.2602 31.4884L18.4619 30.4594C18.3878 30.3638 18.2696 30.3074 18.144 30.3074C18.0183 30.3074 17.9002 30.3638 17.8259 30.4594L16.2006 32.5533C16.2006 32.5527 16.2006 32.554 16.2006 32.5533L16.1997 25.4286C16.1997 25.2317 16.3542 25.0714 16.5441 25.0714H24.8086C24.9985 25.0714 25.1529 25.2317 25.1529 25.4286V32.4219H25.1338Z" fill="#A0A0A0"/>
<rect x="10" y="43" width="21.3333" height="2" fill="#D9D9D9"/>
<rect x="10" y="47" width="21.3333" height="2" fill="#D9D9D9"/>
<rect x="10" y="51" width="21.3333" height="2" fill="#D9D9D9"/>
<rect x="10" y="55" width="21.3333" height="2" fill="#D9D9D9"/>
<rect x="10" y="59" width="7.11111" height="2" fill="#D9D9D9"/>
<rect x="17.1111" y="59" width="7.11111" height="2" fill="#D9D9D9"/>
<rect x="35.3333" y="19" width="21.3333" height="20" rx="3" fill="#ECECEC"/>
<path d="M43.7716 25.9643C43.201 25.9643 42.7385 26.444 42.7385 27.0357C42.7385 27.6275 43.201 28.1071 43.7716 28.1071C44.3421 28.1071 44.8046 27.6275 44.8046 27.0357C44.8046 26.444 44.3419 25.9643 43.7716 25.9643ZM50.1228 24H41.8582C41.1168 24 40.5 24.6395 40.5 25.4286V32.5714C40.5 33.3605 41.1166 34 41.8581 34H50.1226C50.8834 34 51.5 33.3605 51.5 32.5714V25.4286C51.5002 24.6395 50.9019 24 50.1228 24ZM50.4671 32.4219L47.5229 28.2723C47.4691 28.1696 47.3464 28.1071 47.2151 28.1071C47.0836 28.1071 46.9607 28.1689 46.8878 28.2719L44.5935 31.4884L43.7952 30.4594C43.7212 30.3638 43.603 30.3074 43.4774 30.3074C43.3516 30.3074 43.2335 30.3638 43.1593 30.4594L41.5339 32.5533C41.5339 32.5527 41.5339 32.554 41.5339 32.5533L41.533 25.4286C41.533 25.2317 41.6875 25.0714 41.8774 25.0714H50.1419C50.3318 25.0714 50.4863 25.2317 50.4863 25.4286V32.4219H50.4671Z" fill="#A0A0A0"/>
<rect x="35.3333" y="43" width="21.3333" height="2" fill="#D9D9D9"/>
<rect x="35.3333" y="47" width="21.3333" height="2" fill="#D9D9D9"/>
<rect x="35.3333" y="51" width="21.3333" height="2" fill="#D9D9D9"/>
<rect x="35.3333" y="55" width="21.3333" height="2" fill="#D9D9D9"/>
<rect x="35.3333" y="59" width="7.11111" height="2" fill="#D9D9D9"/>
<rect x="42.4445" y="59" width="7.11111" height="2" fill="#D9D9D9"/>
<rect x="60.6667" y="19" width="21.3333" height="20" rx="3" fill="#ECECEC"/>
<path d="M69.1049 25.9643C68.5343 25.9643 68.0718 26.444 68.0718 27.0357C68.0718 27.6275 68.5343 28.1071 69.1049 28.1071C69.6754 28.1071 70.1379 27.6275 70.1379 27.0357C70.1379 26.444 69.6752 25.9643 69.1049 25.9643ZM75.4561 24H67.1916C66.4501 24 65.8333 24.6395 65.8333 25.4286V32.5714C65.8333 33.3605 66.4499 34 67.1914 34H75.4559C76.2167 34 76.8333 33.3605 76.8333 32.5714V25.4286C76.8335 24.6395 76.2352 24 75.4561 24ZM75.8004 32.4219L72.8562 28.2723C72.8024 28.1696 72.6797 28.1071 72.5484 28.1071C72.4169 28.1071 72.294 28.1689 72.2211 28.2719L69.9268 31.4884L69.1286 30.4594C69.0545 30.3638 68.9363 30.3074 68.8107 30.3074C68.6849 30.3074 68.5668 30.3638 68.4926 30.4594L66.8672 32.5533C66.8672 32.5527 66.8672 32.554 66.8672 32.5533L66.8664 25.4286C66.8664 25.2317 67.0208 25.0714 67.2107 25.0714H75.4752C75.6651 25.0714 75.8196 25.2317 75.8196 25.4286V32.4219H75.8004Z" fill="#A0A0A0"/>
<rect x="60.6667" y="43" width="21.3333" height="2" fill="#D9D9D9"/>
<rect x="60.6667" y="47" width="21.3333" height="2" fill="#D9D9D9"/>
<rect x="60.6667" y="51" width="21.3333" height="2" fill="#D9D9D9"/>
<rect x="60.6667" y="55" width="21.3333" height="2" fill="#D9D9D9"/>
<rect x="60.6667" y="59" width="7.11111" height="2" fill="#D9D9D9"/>
<rect x="67.7778" y="59" width="7.11111" height="2" fill="#D9D9D9"/>
<rect x="1" y="1" width="90" height="67" rx="3" stroke="#D9D9D9" stroke-width="2"/>
</svg>
