<svg width="91" height="53" viewBox="0 0 91 53" fill="none" xmlns="http://www.w3.org/2000/svg">
<rect x="10" y="8" width="26" height="5" fill="#D9D9D9"/>
<rect x="10" y="19" width="5" height="5" rx="1" fill="#D9D9D9"/>
<rect x="18" y="19" width="24.5" height="2" fill="#D9D9D9"/>
<rect x="18" y="23" width="24.5" height="2" fill="#D9D9D9"/>
<rect x="18" y="27" width="8.16667" height="2" fill="#D9D9D9"/>
<rect x="26.1667" y="27" width="8.16667" height="2" fill="#D9D9D9"/>
<rect x="48.5" y="19" width="5" height="5" rx="1" fill="#D9D9D9"/>
<rect x="56.5" y="19" width="24.5" height="2" fill="#D9D9D9"/>
<rect x="56.5" y="23" width="24.5" height="2" fill="#D9D9D9"/>
<rect x="56.5" y="27" width="8.16667" height="2" fill="#D9D9D9"/>
<rect x="64.6667" y="27" width="8.16667" height="2" fill="#D9D9D9"/>
<rect x="10" y="35" width="5" height="5" rx="1" fill="#D9D9D9"/>
<rect x="18" y="35" width="24.5" height="2" fill="#D9D9D9"/>
<rect x="18" y="39" width="24.5" height="2" fill="#D9D9D9"/>
<rect x="18" y="43" width="8.16667" height="2" fill="#D9D9D9"/>
<rect x="26.1667" y="43" width="8.16667" height="2" fill="#D9D9D9"/>
<rect x="48.5" y="35" width="5" height="5" rx="1" fill="#D9D9D9"/>
<rect x="56.5" y="35" width="24.5" height="2" fill="#D9D9D9"/>
<rect x="56.5" y="39" width="24.5" height="2" fill="#D9D9D9"/>
<rect x="56.5" y="43" width="8.16667" height="2" fill="#D9D9D9"/>
<rect x="64.6667" y="43" width="8.16667" height="2" fill="#D9D9D9"/>
<rect x="1" y="1" width="89" height="51" rx="3" stroke="#D9D9D9" stroke-width="2"/>
</svg>
