<svg width="92" height="65" viewBox="0 0 92 65" fill="none" xmlns="http://www.w3.org/2000/svg">
<rect x="10" y="8" width="26" height="5" fill="#D9D9D9"/>
<rect x="10" y="19" width="34" height="20" rx="3" fill="#ECECEC"/>
<path d="M24.7716 25.9643C24.201 25.9643 23.7385 26.444 23.7385 27.0357C23.7385 27.6275 24.201 28.1071 24.7716 28.1071C25.3421 28.1071 25.8046 27.6275 25.8046 27.0357C25.8046 26.444 25.3419 25.9643 24.7716 25.9643ZM31.1228 24H22.8582C22.1168 24 21.5 24.6395 21.5 25.4286V32.5714C21.5 33.3605 22.1166 34 22.8581 34H31.1226C31.8834 34 32.5 33.3605 32.5 32.5714V25.4286C32.5002 24.6395 31.9019 24 31.1228 24ZM31.4671 32.4219L28.5229 28.2723C28.4691 28.1696 28.3464 28.1071 28.2151 28.1071C28.0836 28.1071 27.9607 28.1689 27.8878 28.2719L25.5935 31.4884L24.7952 30.4594C24.7212 30.3638 24.603 30.3074 24.4774 30.3074C24.3516 30.3074 24.2335 30.3638 24.1593 30.4594L22.5339 32.5533C22.5339 32.5527 22.5339 32.554 22.5339 32.5533L22.533 25.4286C22.533 25.2317 22.6875 25.0714 22.8774 25.0714H31.1419C31.3318 25.0714 31.4863 25.2317 31.4863 25.4286V32.4219H31.4671Z" fill="#A0A0A0"/>
<rect x="10" y="43" width="34" height="2" fill="#D9D9D9"/>
<rect x="10" y="47" width="34" height="2" fill="#D9D9D9"/>
<rect x="10" y="51" width="34" height="2" fill="#D9D9D9"/>
<rect x="10" y="55" width="11.3333" height="2" fill="#D9D9D9"/>
<rect x="21.3333" y="55" width="11.3333" height="2" fill="#D9D9D9"/>
<rect x="48" y="19" width="34" height="20" rx="3" fill="#ECECEC"/>
<path d="M62.7716 25.9643C62.201 25.9643 61.7385 26.444 61.7385 27.0357C61.7385 27.6275 62.201 28.1071 62.7716 28.1071C63.3421 28.1071 63.8046 27.6275 63.8046 27.0357C63.8046 26.444 63.3419 25.9643 62.7716 25.9643ZM69.1228 24H60.8582C60.1168 24 59.5 24.6395 59.5 25.4286V32.5714C59.5 33.3605 60.1166 34 60.8581 34H69.1226C69.8834 34 70.5 33.3605 70.5 32.5714V25.4286C70.5002 24.6395 69.9019 24 69.1228 24ZM69.4671 32.4219L66.5229 28.2723C66.4691 28.1696 66.3464 28.1071 66.2151 28.1071C66.0836 28.1071 65.9607 28.1689 65.8878 28.2719L63.5935 31.4884L62.7952 30.4594C62.7212 30.3638 62.603 30.3074 62.4774 30.3074C62.3516 30.3074 62.2335 30.3638 62.1593 30.4594L60.5339 32.5533C60.5339 32.5527 60.5339 32.554 60.5339 32.5533L60.533 25.4286C60.533 25.2317 60.6875 25.0714 60.8774 25.0714H69.1419C69.3318 25.0714 69.4863 25.2317 69.4863 25.4286V32.4219H69.4671Z" fill="#A0A0A0"/>
<rect x="48" y="43" width="34" height="2" fill="#D9D9D9"/>
<rect x="48" y="47" width="34" height="2" fill="#D9D9D9"/>
<rect x="48" y="51" width="34" height="2" fill="#D9D9D9"/>
<rect x="48" y="55" width="11.3333" height="2" fill="#D9D9D9"/>
<rect x="59.3333" y="55" width="11.3333" height="2" fill="#D9D9D9"/>
<rect x="1" y="1" width="90" height="63" rx="3" stroke="#D9D9D9" stroke-width="2"/>
</svg>
