<svg width="92" height="47" viewBox="0 0 92 47" fill="none" xmlns="http://www.w3.org/2000/svg">
<rect x="10" y="8" width="26" height="5" fill="#D9D9D9"/>
<rect x="10" y="19" width="34" height="2" fill="#D9D9D9"/>
<rect x="10" y="23" width="34" height="2" fill="#D9D9D9"/>
<rect x="10" y="27" width="34" height="2" fill="#D9D9D9"/>
<rect x="10" y="31" width="34" height="2" fill="#D9D9D9"/>
<rect x="10" y="35" width="11.3333" height="2" fill="#D9D9D9"/>
<rect x="21.3333" y="35" width="11.3333" height="2" fill="#D9D9D9"/>
<rect x="48" y="19" width="34" height="20" rx="3" fill="#ECECEC"/>
<path d="M62.7716 25.9643C62.201 25.9643 61.7385 26.444 61.7385 27.0357C61.7385 27.6275 62.201 28.1071 62.7716 28.1071C63.3421 28.1071 63.8046 27.6275 63.8046 27.0357C63.8046 26.444 63.3419 25.9643 62.7716 25.9643ZM69.1228 24H60.8582C60.1168 24 59.5 24.6395 59.5 25.4286V32.5714C59.5 33.3605 60.1166 34 60.8581 34H69.1226C69.8834 34 70.5 33.3605 70.5 32.5714V25.4286C70.5002 24.6395 69.9019 24 69.1228 24ZM69.4671 32.4219L66.5229 28.2723C66.4691 28.1696 66.3464 28.1071 66.2151 28.1071C66.0836 28.1071 65.9607 28.1689 65.8878 28.2719L63.5935 31.4884L62.7952 30.4594C62.7212 30.3638 62.603 30.3074 62.4774 30.3074C62.3516 30.3074 62.2335 30.3638 62.1593 30.4594L60.5339 32.5533C60.5339 32.5527 60.5339 32.554 60.5339 32.5533L60.533 25.4286C60.533 25.2317 60.6875 25.0714 60.8774 25.0714H69.1419C69.3318 25.0714 69.4863 25.2317 69.4863 25.4286V32.4219H69.4671Z" fill="#A0A0A0"/>
<rect x="1" y="1" width="90" height="45" rx="3" stroke="#D9D9D9" stroke-width="2"/>
</svg>
