<svg width="91" height="63" viewBox="0 0 91 63" fill="none" xmlns="http://www.w3.org/2000/svg">
<rect x="10" y="8" width="26" height="5" fill="#D9D9D9"/>
<rect x="12" y="19" width="1" height="2" fill="#D9D9D9"/>
<rect x="10" y="21" width="5" height="5" rx="1" fill="#D9D9D9"/>
<rect x="12" y="26" width="1" height="5" fill="#D9D9D9"/>
<rect x="15" y="23" width="5" height="1" fill="#D9D9D9"/>
<rect x="23" y="21" width="58" height="2" fill="#D9D9D9"/>
<rect x="23" y="25" width="19.3333" height="2" fill="#D9D9D9"/>
<rect x="42.3333" y="25" width="19.3333" height="2" fill="#D9D9D9"/>
<rect x="12" y="31" width="1" height="2" fill="#D9D9D9"/>
<rect x="10" y="33" width="5" height="5" rx="1" fill="#D9D9D9"/>
<rect x="12" y="38" width="1" height="5" fill="#D9D9D9"/>
<rect x="15" y="35" width="5" height="1" fill="#D9D9D9"/>
<rect x="23" y="33" width="58" height="2" fill="#D9D9D9"/>
<rect x="23" y="37" width="19.3333" height="2" fill="#D9D9D9"/>
<rect x="42.3333" y="37" width="19.3333" height="2" fill="#D9D9D9"/>
<rect x="12" y="43" width="1" height="2" fill="#D9D9D9"/>
<rect x="10" y="45" width="5" height="5" rx="1" fill="#D9D9D9"/>
<rect x="12" y="50" width="1" height="5" fill="#D9D9D9"/>
<rect x="15" y="47" width="5" height="1" fill="#D9D9D9"/>
<rect x="23" y="45" width="58" height="2" fill="#D9D9D9"/>
<rect x="23" y="49" width="19.3333" height="2" fill="#D9D9D9"/>
<rect x="42.3333" y="49" width="19.3333" height="2" fill="#D9D9D9"/>
<rect x="1" y="1" width="89" height="61" rx="3" stroke="#D9D9D9" stroke-width="2"/>
</svg>
