<svg width="91" height="61" viewBox="0 0 91 61" fill="none" xmlns="http://www.w3.org/2000/svg">
<rect x="10" y="8" width="26" height="5" fill="#D9D9D9"/>
<rect x="10" y="19" width="21" height="20" rx="3" fill="#ECECEC"/>
<g clip-path="url(#clip0_23_469)">
<path d="M20.5 29C21.1606 29 21.7942 28.7366 22.2613 28.2678C22.7284 27.7989 22.9908 27.163 22.9908 26.5C22.9908 25.837 22.7284 25.2011 22.2613 24.7322C21.7942 24.2634 21.1606 24 20.5 24C19.8394 24 19.2058 24.2634 18.7387 24.7322C18.2716 25.2011 18.0092 25.837 18.0092 26.5C18.0092 27.163 18.2716 27.7989 18.7387 28.2678C19.2058 28.7366 19.8394 29 20.5 29ZM19.6107 29.9375C17.6939 29.9375 16.141 31.4961 16.141 33.4199C16.141 33.7402 16.3998 34 16.719 34H24.281C24.6002 34 24.859 33.7402 24.859 33.4199C24.859 31.4961 23.3061 29.9375 21.3893 29.9375H19.6107Z" fill="#A0A0A0"/>
</g>
<rect x="10" y="43" width="21" height="2" fill="#D9D9D9"/>
<rect x="10" y="47" width="21" height="2" fill="#D9D9D9"/>
<rect x="10" y="51" width="7" height="2" fill="#D9D9D9"/>
<rect x="17" y="51" width="7" height="2" fill="#D9D9D9"/>
<rect x="35" y="19" width="21" height="20" rx="3" fill="#ECECEC"/>
<g clip-path="url(#clip1_23_469)">
<path d="M45.5 29C46.1606 29 46.7942 28.7366 47.2613 28.2678C47.7284 27.7989 47.9908 27.163 47.9908 26.5C47.9908 25.837 47.7284 25.2011 47.2613 24.7322C46.7942 24.2634 46.1606 24 45.5 24C44.8394 24 44.2058 24.2634 43.7387 24.7322C43.2716 25.2011 43.0092 25.837 43.0092 26.5C43.0092 27.163 43.2716 27.7989 43.7387 28.2678C44.2058 28.7366 44.8394 29 45.5 29ZM44.6107 29.9375C42.6939 29.9375 41.141 31.4961 41.141 33.4199C41.141 33.7402 41.3998 34 41.719 34H49.281C49.6002 34 49.859 33.7402 49.859 33.4199C49.859 31.4961 48.3061 29.9375 46.3893 29.9375H44.6107Z" fill="#A0A0A0"/>
</g>
<rect x="35" y="43" width="21" height="2" fill="#D9D9D9"/>
<rect x="35" y="47" width="21" height="2" fill="#D9D9D9"/>
<rect x="35" y="51" width="7" height="2" fill="#D9D9D9"/>
<rect x="42" y="51" width="7" height="2" fill="#D9D9D9"/>
<rect x="60" y="19" width="21" height="20" rx="3" fill="#ECECEC"/>
<g clip-path="url(#clip2_23_469)">
<path d="M70.5 29C71.1606 29 71.7942 28.7366 72.2613 28.2678C72.7284 27.7989 72.9908 27.163 72.9908 26.5C72.9908 25.837 72.7284 25.2011 72.2613 24.7322C71.7942 24.2634 71.1606 24 70.5 24C69.8394 24 69.2058 24.2634 68.7387 24.7322C68.2716 25.2011 68.0092 25.837 68.0092 26.5C68.0092 27.163 68.2716 27.7989 68.7387 28.2678C69.2058 28.7366 69.8394 29 70.5 29ZM69.6107 29.9375C67.6939 29.9375 66.141 31.4961 66.141 33.4199C66.141 33.7402 66.3998 34 66.719 34H74.281C74.6002 34 74.859 33.7402 74.859 33.4199C74.859 31.4961 73.3061 29.9375 71.3893 29.9375H69.6107Z" fill="#A0A0A0"/>
</g>
<rect x="60" y="43" width="21" height="2" fill="#D9D9D9"/>
<rect x="60" y="47" width="21" height="2" fill="#D9D9D9"/>
<rect x="60" y="51" width="7" height="2" fill="#D9D9D9"/>
<rect x="67" y="51" width="7" height="2" fill="#D9D9D9"/>
<rect x="1" y="1" width="89" height="59" rx="3" stroke="#D9D9D9" stroke-width="2"/>
<defs>
<clipPath id="clip0_23_469">
<rect width="8.71795" height="10" fill="white" transform="translate(16.141 24)"/>
</clipPath>
<clipPath id="clip1_23_469">
<rect width="8.71795" height="10" fill="white" transform="translate(41.141 24)"/>
</clipPath>
<clipPath id="clip2_23_469">
<rect width="8.71795" height="10" fill="white" transform="translate(66.141 24)"/>
</clipPath>
</defs>
</svg>
