<svg width="92" height="47" fill="none" xmlns="http://www.w3.org/2000/svg"><path fill="#D9D9D9" d="M10 8h26v5H10z"/><rect x="10" y="19" width="34" height="20" rx="3" fill="#ECECEC"/><path d="M24.772 25.964c-.571 0-1.034.48-1.034 1.072 0 .591.463 1.071 1.034 1.071.57 0 1.033-.48 1.033-1.071 0-.592-.463-1.072-1.033-1.072ZM31.122 24h-8.264c-.741 0-1.358.64-1.358 1.429v7.142c0 .79.617 1.429 1.358 1.429h8.265c.76 0 1.377-.64 1.377-1.429V25.43c0-.79-.598-1.429-1.377-1.429Zm.345 8.422-2.944-4.15c-.054-.102-.177-.165-.308-.165a.4.4 0 0 0-.327.165l-2.295 3.216-.798-1.029a.402.402 0 0 0-.318-.152.402.402 0 0 0-.318.152l-1.625 2.094s0 .001 0 0l-.001-7.124c0-.197.154-.358.344-.358h8.265c.19 0 .344.16.344.358v6.993h-.019Z" fill="#A0A0A0"/><path fill="#D9D9D9" d="M48 19h34v2H48zM48 23h34v2H48zM48 27h34v2H48zM48 31h34v2H48zM48 35h11.333v2H48zM59.333 35h11.333v2H59.333z"/><rect x="1" y="1" width="90" height="45" rx="3" stroke="#D9D9D9" stroke-width="2"/></svg>