<svg width="92" height="45" fill="none" xmlns="http://www.w3.org/2000/svg"><path fill="#D9D9D9" d="M10 8h26v5H10zM10 19h21.333v2H10zM10 23h21.333v2H10zM10 27h21.333v2H10zM10 31h21.333v2H10zM10 35h7.111v2H10zM17.111 35h7.111v2h-7.111zM35.333 19h21.333v2H35.333zM35.333 23h21.333v2H35.333zM35.333 27h21.333v2H35.333zM35.333 31h21.333v2H35.333zM35.333 35h7.111v2h-7.111zM42.444 35h7.111v2h-7.111zM60.667 19H82v2H60.667zM60.667 23H82v2H60.667zM60.667 27H82v2H60.667zM60.667 31H82v2H60.667zM60.667 35h7.111v2h-7.111zM67.778 35h7.111v2h-7.111z"/><rect x="1" y="1" width="90" height="43" rx="3" stroke="#D9D9D9" stroke-width="2"/></svg>