<svg width="91" height="49" viewBox="0 0 91 49" fill="none" xmlns="http://www.w3.org/2000/svg">
<rect x="10" y="8" width="26" height="5" fill="#D9D9D9"/>
<rect x="10" y="19" width="22.3333" height="22" rx="3" fill="#ECECEC"/>
<rect x="14" y="25" width="14.3333" height="2" fill="#C6C6C6"/>
<rect x="14" y="29" width="14.3333" height="2" fill="#C6C6C6"/>
<rect x="14" y="33" width="4.77778" height="2" fill="#C6C6C6"/>
<rect x="18.7778" y="33" width="4.77778" height="2" fill="#C6C6C6"/>
<rect x="34.3333" y="19" width="22.3333" height="22" rx="3" fill="#ECECEC"/>
<rect x="38.3333" y="25" width="14.3333" height="2" fill="#C6C6C6"/>
<rect x="38.3333" y="29" width="14.3333" height="2" fill="#C6C6C6"/>
<rect x="38.3333" y="33" width="4.77778" height="2" fill="#C6C6C6"/>
<rect x="43.1111" y="33" width="4.77778" height="2" fill="#C6C6C6"/>
<rect x="58.6667" y="19" width="22.3333" height="22" rx="3" fill="#ECECEC"/>
<rect x="62.6667" y="25" width="14.3333" height="2" fill="#C6C6C6"/>
<rect x="62.6667" y="29" width="14.3333" height="2" fill="#C6C6C6"/>
<rect x="62.6667" y="33" width="4.77778" height="2" fill="#C6C6C6"/>
<rect x="67.4444" y="33" width="4.77778" height="2" fill="#C6C6C6"/>
<rect x="1" y="1" width="89" height="47" rx="3" stroke="#D9D9D9" stroke-width="2"/>
</svg>
